<?xml version="1.0" encoding="UTF-8"?>
<svg width="134px" height="134px" viewBox="0 0 134 134" version="1.1" xmlns="http://www.w3.org/2000/svg" xmlns:xlink="http://www.w3.org/1999/xlink">
    <!-- Generator: Sketch 62 (91390) - https://sketch.com -->
    <title>Group 58 Copy</title>
    <desc>Created with Sketch.</desc>
    <defs>
        <polygon id="path-1" points="0.3505 0.556 2.9405 0.556 2.9405 8.3728 0.3505 8.3728"></polygon>
        <polygon id="path-3" points="0.654446509 0.964565401 6.29303292 0.964565401 6.29303292 7 0.654446509 7"></polygon>
        <polygon id="path-5" points="0 0.826032507 8.29135443 0.826032507 8.29135443 4.96638009 0 4.96638009"></polygon>
    </defs>
    <g id="Page-1" stroke="none" stroke-width="1" fill="none" fill-rule="evenodd">
        <g id="SERVICES-Copy" transform="translate(-1154.000000, -537.000000)">
            <g id="Group-58-Copy" transform="translate(1154.000000, 536.000000)">
                <path d="M17.2919,26.7673 C17.8729,27.2493 17.9439,27.8403 17.4759,28.4033 C17.0089,28.9653 16.4229,28.9943 15.8409,28.5113 C15.2409,28.0123 15.1609,27.4313 15.6299,26.8683 C16.0989,26.3053 16.6909,26.2673 17.2919,26.7673" id="Fill-1" fill="#231F20"></path>
                <path d="M30.9247,12.886 L32.9447,16.256 L33.6897,15.809 C34.7937,15.147 35.1587,14.108 34.5207,13.042 L34.5087,13.022 C33.8747,11.965 32.7757,11.778 31.6707,12.44 L30.9247,12.886 Z M28.1257,12.369 L30.6857,10.837 C33.0347,9.428 35.2177,9.968 36.3607,11.875 L36.3717,11.894 C37.5137,13.8 36.9757,16.047 34.6057,17.466 L32.0857,18.976 L28.1257,12.369 Z" id="Fill-3" fill="#231F20"></path>
                <polygon id="Fill-5" fill="#231F20" points="41.578 5.3958 47.448 3.4288 48.021 5.1388 44.153 6.4348 44.528 7.5498 48.03 6.3758 48.565 7.9718 45.061 9.1458 45.45 10.3028 49.37 8.9898 49.946 10.7098 44.024 12.6938"></polygon>
                <path d="M55.287,8.324 L56.301,6.776 C57.136,7.287 58.003,7.506 58.89,7.402 C59.468,7.334 59.751,7.101 59.712,6.774 L59.71,6.752 C59.671,6.424 59.399,6.29 58.321,6.161 C56.65,5.982 55.34,5.671 55.155,4.109 L55.153,4.087 C54.987,2.666 55.991,1.507 57.827,1.291 C59.127,1.138 60.183,1.368 61.093,1.937 L60.208,3.558 C59.45,3.138 58.656,2.977 57.979,3.056 C57.466,3.116 57.239,3.354 57.272,3.638 L57.274,3.66 C57.315,4.01 57.596,4.132 58.694,4.246 C60.487,4.423 61.647,4.863 61.815,6.294 L61.818,6.315 C62.002,7.877 60.876,8.951 59.018,9.171 C57.665,9.329 56.337,9.053 55.287,8.324" id="Fill-7" fill="#231F20"></path>
                <g id="Group-11" transform="translate(68.000000, 0.444000)">
                    <mask id="mask-2" fill="white">
                        <use xlink:href="#path-1"></use>
                    </mask>
                    <g id="Clip-10"></g>
                    <polygon id="Fill-9" fill="#231F20" mask="url(#mask-2)" points="0.8075 0.5558 2.9405 0.6818 2.4835 8.3728 0.3505 8.2468"></polygon>
                </g>
                <path d="M77.664,5.804 L77.669,5.783 C78.212,3.606 80.343,2.325 82.647,2.898 C83.958,3.225 84.789,3.85 85.408,4.729 L83.825,5.899 C83.404,5.318 82.944,4.932 82.198,4.746 C81.121,4.478 80.065,5.167 79.781,6.308 L79.776,6.33 C79.474,7.546 80.102,8.619 81.286,8.914 C81.798,9.041 82.208,9.031 82.558,8.903 L82.782,7.996 L81.321,7.632 L81.698,6.117 L85.122,6.97 L84.289,10.319 C83.335,10.784 82.122,11.014 80.757,10.674 C78.431,10.095 77.102,8.065 77.664,5.804" id="Fill-12" fill="#231F20"></path>
                <polygon id="Fill-14" fill="#231F20" points="93.3847 6.6555 95.1597 7.5585 96.1417 12.6235 97.9857 8.9925 99.8677 9.9495 96.3817 16.8165 94.7237 15.9735 93.6927 10.7125 91.7807 14.4795 89.8967 13.5235"></polygon>
                <polygon id="Fill-16" fill="#231F20" points="113.664 20.5554 117.843 25.0824 116.47 26.3504 113.737 23.3924 112.776 24.2804 115.246 26.9554 113.944 28.1574 111.474 25.4814 109.453 27.3474 108.005 25.7794"></polygon>
                <path d="M122.0927,38.2781 L122.1127,38.2671 C123.0807,37.7031 123.5097,36.5361 122.9177,35.5201 C122.3247,34.5031 121.1147,34.3031 120.1557,34.8631 L120.1367,34.8731 C119.1757,35.4331 118.7427,36.6141 119.3347,37.6301 C119.9227,38.6381 121.1327,38.8371 122.0927,38.2781 M119.0217,33.0031 L119.0407,32.9911 C120.9517,31.8791 123.3977,32.5171 124.5927,34.5701 C125.7877,36.6241 125.1427,39.0351 123.2317,40.1481 L123.2137,40.1591 C121.3027,41.2711 118.8567,40.6331 117.6607,38.5801 C116.4657,36.5271 117.1107,34.1151 119.0217,33.0031" id="Fill-18" fill="#231F20"></path>
                <path d="M127.1484,49.9768 C127.3604,50.6598 127.8234,50.9658 128.3594,50.7998 L128.3794,50.7928 C128.9684,50.6108 129.1294,50.0888 128.9214,49.4168 L128.5044,48.0718 L126.7294,48.6218 L127.1484,49.9768 Z M129.6284,45.4918 L130.7064,48.9688 C131.0524,50.0928 130.9994,50.9608 130.6584,51.6078 C130.3614,52.1708 129.8724,52.5638 129.1474,52.7888 L129.1264,52.7958 C127.9914,53.1468 127.0614,52.7778 126.3894,51.9848 L124.3684,54.5328 L123.6434,52.1888 L125.4134,50.0188 L125.1324,49.1158 L122.9054,49.8048 L122.2744,47.7668 L129.6284,45.4918 Z" id="Fill-20" fill="#231F20"></path>
                <path d="M129.8642,68.5833 L129.8852,68.5843 C132.1282,68.7173 133.7822,70.5803 133.6412,72.9533 C133.5602,74.3043 133.0962,75.2373 132.3442,76.0073 L130.9032,74.6663 C131.3972,74.1433 131.6922,73.6213 131.7392,72.8513 C131.8042,71.7423 130.9322,70.8303 129.7572,70.7603 L129.7352,70.7583 C128.4822,70.6843 127.5402,71.4993 127.4682,72.7193 C127.4372,73.2473 127.5232,73.6493 127.7142,73.9683 L128.6482,74.0243 L128.7372,72.5193 L130.2982,72.6123 L130.0892,76.1383 L126.6372,75.9343 C126.0052,75.0803 125.5542,73.9283 125.6372,72.5223 C125.7802,70.1273 127.5352,68.4443 129.8642,68.5833" id="Fill-22" fill="#231F20"></path>
                <path d="M126.5458,88.7254 L126.5668,88.7314 C127.6438,89.0514 128.7878,88.5634 129.1218,87.4334 C129.4558,86.3054 128.7708,85.2874 127.7048,84.9704 L127.6838,84.9644 C126.6178,84.6474 125.4618,85.1434 125.1268,86.2724 C124.7948,87.3914 125.4808,88.4094 126.5458,88.7254 M128.2818,82.8684 L128.3038,82.8734 C130.4248,83.5034 131.6378,85.7234 130.9618,88.0024 C130.2868,90.2824 128.0868,91.4674 125.9658,90.8374 L125.9438,90.8314 C123.8228,90.2044 122.6098,87.9834 123.2858,85.7044 C123.9608,83.4244 126.1608,82.2394 128.2818,82.8684" id="Fill-24" fill="#231F20"></path>
                <path d="M120.1845,102.3474 L120.2045,102.3584 C121.1745,102.9184 122.3995,102.7124 122.9885,101.6944 C123.5775,100.6744 123.1495,99.5264 122.1865,98.9694 L122.1675,98.9574 C121.2055,98.4034 119.9655,98.6144 119.3765,99.6334 C118.7935,100.6414 119.2215,101.7914 120.1845,102.3474 M123.2395,97.0614 L123.2565,97.0734 C125.1715,98.1784 125.8325,100.6184 124.6435,102.6764 C123.4555,104.7334 121.0415,105.3694 119.1275,104.2644 L119.1085,104.2534 C117.1945,103.1474 116.5335,100.7074 117.7215,98.6514 C118.9115,96.5924 121.3235,95.9554 123.2395,97.0614" id="Fill-26" fill="#231F20"></path>
                <path d="M114.7997,112.7713 L111.9437,110.0753 L111.3467,110.7083 C110.4627,111.6433 110.3937,112.7433 111.2977,113.5963 L111.3137,113.6113 C112.2097,114.4583 113.3197,114.3383 114.2027,113.4033 L114.7997,112.7713 Z M117.6337,112.5103 L115.5867,114.6783 C113.7057,116.6703 111.4587,116.7433 109.8417,115.2183 L109.8267,115.2043 C108.2097,113.6773 108.1197,111.3693 110.0157,109.3603 L112.0317,107.2233 L117.6337,112.5103 Z" id="Fill-28" fill="#231F20"></path>
                <path d="M94.3447,126.1843 C93.9967,125.5143 94.1607,124.9423 94.8107,124.6063 C95.4597,124.2683 96.0097,124.4693 96.3587,125.1403 C96.7177,125.8333 96.5657,126.3993 95.9147,126.7363 C95.2647,127.0733 94.7037,126.8773 94.3447,126.1843" id="Fill-30" fill="#231F20"></path>
                <g id="Group-34" transform="translate(68.000000, 127.444000)">
                    <mask id="mask-4" fill="white">
                        <use xlink:href="#path-3"></use>
                    </mask>
                    <g id="Clip-33"></g>
                    <path d="M1.7626,3.6153 C2.0186,2.7853 2.2406,1.8513 2.3866,1.1523 C2.3936,1.0923 2.4386,1.0523 2.5096,1.0463 L3.4676,0.9653 C3.5376,0.9593 3.5886,0.9903 3.6066,1.0493 C3.8566,1.7153 4.2306,2.5873 4.6336,3.3723 L6.2736,6.3903 C6.3176,6.4703 6.2856,6.5333 6.1906,6.5413 L5.3286,6.6143 C5.2696,6.6193 5.2196,6.5993 5.1906,6.5293 L3.8666,4.1243 C3.5746,3.5213 3.3286,2.9043 3.1956,2.4573 C3.1626,2.3513 3.0426,2.3613 3.0286,2.4723 C2.9816,2.9333 2.8456,3.5953 2.6456,4.2263 L1.7436,6.8203 C1.7266,6.8943 1.6806,6.9223 1.6206,6.9283 L0.7716,6.9993 C0.6766,7.0083 0.6356,6.9493 0.6626,6.8633 L1.7626,3.6153 Z" id="Fill-32" fill="#231F20" mask="url(#mask-4)"></path>
                </g>
                <path d="M58.3193,131.5379 C57.7733,131.5609 57.4713,131.7679 57.4293,132.1509 C57.3663,132.7239 57.7703,133.0949 58.5353,133.1809 C59.4893,133.2869 60.1683,132.7329 60.3743,131.4279 L58.3193,131.5379 Z M57.7783,128.1539 C58.2213,128.0829 58.6423,128.0939 59.0483,128.1399 C60.7783,128.3319 61.6533,129.5889 61.4483,131.4379 C61.2413,133.2879 60.1003,134.3209 58.4173,134.1339 C57.0203,133.9779 56.2623,133.1939 56.3893,132.0479 C56.4873,131.1769 57.0813,130.7239 58.2353,130.6699 L60.3833,130.5709 C60.3193,129.7419 59.8253,129.1919 58.9543,129.0949 C58.5843,129.0539 58.2083,129.0599 57.9133,129.1119 L57.4583,129.1829 C57.3723,129.1959 57.3273,129.1669 57.3123,129.0809 L57.1963,128.3799 C57.1823,128.2939 57.2123,128.2489 57.2983,128.2329 L57.7783,128.1539 Z" id="Fill-35" fill="#231F20"></path>
                <path d="M45.5702,130.4793 C45.5942,130.3993 45.6392,130.3753 45.7192,130.3993 C46.9782,130.7133 47.8942,129.9613 48.5052,127.9283 L48.9812,126.3413 C49.0062,126.2603 49.0502,126.2373 49.1322,126.2603 L49.9132,126.4963 C49.9812,126.5163 50.0142,126.5763 49.9932,126.6453 L48.3972,131.9563 C48.3782,132.0243 48.3172,132.0573 48.2482,132.0363 L47.7762,131.8943 C47.7082,131.8743 47.6732,131.8253 47.6812,131.7523 L47.7722,130.9533 C47.7602,130.8243 47.6982,130.7803 47.5982,130.8633 C46.9562,131.3723 46.3042,131.5403 45.4442,131.3193 C45.3752,131.2973 45.3422,131.2393 45.3632,131.1683 L45.5702,130.4793 Z" id="Fill-37" fill="#231F20"></path>
                <path d="M35.3798,126.9548 C35.3048,126.9178 35.2878,126.8688 35.3258,126.7938 L35.6398,126.1588 C35.6768,126.0838 35.7258,126.0668 35.7998,126.1038 L37.0048,126.6998 L38.4578,123.7638 C38.6608,123.3538 38.5948,123.0268 38.2818,122.8738 C38.1858,122.8248 38.0888,122.8038 37.9758,122.7878 C37.9008,122.7778 37.8678,122.7348 37.8678,122.6548 L37.8868,121.9678 C37.8808,121.8978 37.9188,121.8498 37.9988,121.8498 C38.2178,121.8368 38.4828,121.9008 38.7078,122.0128 C39.6218,122.4658 39.8778,123.2738 39.4048,124.2308 L37.9518,127.1688 L38.4688,127.4238 C38.5328,127.4558 38.5548,127.5198 38.5238,127.5848 L38.2098,128.2198 C38.1728,128.2958 38.1128,128.3068 38.0488,128.2738 L37.5318,128.0178 L36.9088,129.2778 C36.8778,129.3418 36.8238,129.3688 36.7588,129.3638 L35.9008,129.2328 C35.8098,129.2288 35.7878,129.1648 35.8248,129.0888 L36.5848,127.5508 L35.3798,126.9548 Z" id="Fill-39" fill="#231F20"></path>
                <path d="M30.5947,117.3298 C30.6367,117.2698 30.6947,117.2528 30.7627,117.3008 L31.4287,117.7718 C31.4887,117.8128 31.4997,117.8808 31.4577,117.9398 L28.7347,121.7928 L29.2057,122.1258 C29.2647,122.1668 29.2767,122.2338 29.2337,122.2938 L28.8247,122.8718 C28.7767,122.9398 28.7167,122.9418 28.6577,122.9008 L27.4217,122.0268 C27.3637,121.9848 27.3447,121.9288 27.3937,121.8588 L30.5947,117.3298 Z M26.0787,123.7388 C26.3287,123.3878 26.6637,123.3288 26.9967,123.5648 C27.3407,123.8078 27.3977,124.1418 27.1477,124.4948 C26.9067,124.8378 26.5647,124.9048 26.2207,124.6628 C25.8877,124.4268 25.8367,124.0828 26.0787,123.7388 L26.0787,123.7388 Z" id="Fill-41" fill="#231F20"></path>
                <path d="M22.4062,110.0808 C22.7462,110.2678 23.0612,110.4968 23.3412,110.7758 C24.6162,112.0458 24.4922,113.5648 23.1882,114.8738 C21.8752,116.1918 20.3742,116.3228 19.0732,115.0258 C18.8352,114.7898 18.6132,114.5008 18.4262,114.1628 L18.1962,113.7648 C18.1532,113.6868 18.1712,113.6368 18.2472,113.5948 L18.8832,113.2448 C18.9502,113.2118 19.0012,113.2268 19.0442,113.3048 L19.2312,113.6258 C19.3842,113.9318 19.5802,114.1778 19.7412,114.3388 C20.5932,115.1848 21.5422,115.0298 22.4302,114.1378 C23.3462,113.2198 23.4712,112.2608 22.6632,111.4558 C22.4602,111.2528 22.1792,111.0578 21.8742,110.8888 L21.5422,110.6938 C21.4742,110.6598 21.4572,110.6098 21.4912,110.5418 L21.8212,109.9048 C21.8622,109.8278 21.9142,109.8108 21.9902,109.8528 L22.4062,110.0808 Z" id="Fill-43" fill="#231F20"></path>
                <path d="M14.4814,104.3191 C14.9014,104.9321 15.3834,105.0241 15.8094,104.7331 C16.2854,104.4081 16.3524,103.9111 15.9734,103.3571 C15.3504,102.4461 14.5284,102.2821 13.6464,102.8841 L13.5474,102.9531 L14.4814,104.3191 Z M12.5064,106.9771 C12.1974,106.7381 11.9114,106.4241 11.6264,106.0081 C10.7524,104.7311 10.9204,103.4691 12.1204,102.6491 L14.9914,100.6861 C15.0504,100.6461 15.1104,100.6491 15.1594,100.7181 L15.4364,101.1241 C15.4764,101.1841 15.4674,101.2331 15.4144,101.2841 L15.0794,101.6001 C14.9734,101.7451 15.0314,101.8071 15.2144,101.8421 C15.8174,101.8951 16.3464,102.2451 16.7994,102.9091 C17.5184,103.9581 17.3764,104.9411 16.4754,105.5561 C15.5734,106.1731 14.5634,105.9481 13.7784,104.7991 L12.8434,103.4321 L12.7454,103.5011 C12.0224,103.9951 11.9074,104.6981 12.4484,105.4911 C12.6654,105.8071 12.8934,106.0571 13.1264,106.2491 L13.4684,106.5371 C13.5364,106.5921 13.5444,106.6451 13.4974,106.7061 L13.0474,107.2601 C12.9924,107.3271 12.9394,107.3351 12.8724,107.2791 L12.5064,106.9771 Z" id="Fill-45" fill="#231F20"></path>
                <path d="M10.0917,93.7937 C10.2997,93.6997 10.3897,93.5517 10.3157,93.3877 C10.2997,93.3567 10.2847,93.3227 10.2597,93.2957 C10.2077,93.2397 10.2097,93.1867 10.2597,93.1237 L10.7507,92.6077 C10.8007,92.5457 10.8647,92.5427 10.9167,92.5987 C11.0317,92.7037 11.1237,92.8467 11.1887,92.9887 C11.5327,93.7407 11.2957,94.4047 10.5317,94.7547 L3.9727,97.7587 C3.9067,97.7877 3.8437,97.7647 3.8137,97.6987 L3.4737,96.9567 C3.4437,96.8917 3.4557,96.8327 3.5317,96.7977 L10.0917,93.7937 Z" id="Fill-47" fill="#231F20"></path>
                <g id="Group-51" transform="translate(0.000000, 83.444000)">
                    <mask id="mask-6" fill="white">
                        <use xlink:href="#path-5"></use>
                    </mask>
                    <g id="Clip-50"></g>
                    <path d="M7.0175,1.9396 C7.2365,1.8766 7.3475,1.7436 7.2975,1.5706 C7.2885,1.5366 7.2775,1.5026 7.2555,1.4706 C7.2125,1.4086 7.2225,1.3546 7.2825,1.3006 L7.8425,0.8636 C7.9015,0.8086 7.9655,0.8146 8.0095,0.8776 C8.1065,0.9996 8.1765,1.1546 8.2195,1.3036 C8.4505,2.0996 8.1185,2.7196 7.3105,2.9536 L0.3825,4.9606 C0.3135,4.9806 0.2545,4.9476 0.2345,4.8786 L0.0065,4.0936 C-0.0125,4.0256 0.0085,3.9686 0.0885,3.9456 L7.0175,1.9396 Z" id="Fill-49" fill="#231F20" mask="url(#mask-6)"></path>
                </g>
                <path d="M3.5732,77.2068 C4.8502,77.0668 5.5482,76.3748 5.4342,75.3488 C5.3242,74.3328 4.4912,73.7968 3.2142,73.9358 C1.9372,74.0768 1.2412,74.7808 1.3522,75.7958 C1.4662,76.8218 2.2972,77.3468 3.5732,77.2068 M3.1002,72.8978 C4.9392,72.6958 6.2082,73.5838 6.3892,75.2428 C6.5722,76.9018 5.5262,78.0558 3.6882,78.2568 C1.8502,78.4588 0.5802,77.5598 0.3972,75.9008 C0.2162,74.2408 1.2622,73.0998 3.1002,72.8978" id="Fill-52" fill="#231F20"></path>
                <path d="M3.1318,64.6008 C4.4108,64.7168 5.2318,64.1778 5.3248,63.1488 C5.4168,62.1338 4.7098,61.4418 3.4308,61.3258 C2.1518,61.2088 1.3298,61.7598 1.2368,62.7768 C1.1438,63.8048 1.8528,64.4838 3.1318,64.6008 M3.5258,60.2858 C5.3658,60.4538 6.4328,61.5758 6.2808,63.2368 C6.1298,64.8988 4.8758,65.8208 3.0358,65.6528 C1.1958,65.4838 0.1298,64.3508 0.2808,62.6888 C0.4328,61.0278 1.6848,60.1178 3.5258,60.2858" id="Fill-54" fill="#231F20"></path>
                <path d="M7.1474,52.0203 C7.3894,51.7553 7.5624,51.4303 7.6824,51.0283 C7.9834,50.0283 7.4204,49.2323 6.1904,48.8633 C4.9724,48.4973 4.0554,48.8363 3.7694,49.7903 C3.4694,50.7903 4.1644,51.5623 5.3254,51.9113 L6.8314,52.3643 L7.1474,52.0203 Z M3.1334,51.4903 C3.2614,51.4793 3.2864,51.3993 3.2044,51.2993 C2.7824,50.6963 2.6884,50.0543 2.8954,49.3643 C3.3404,47.8813 4.7124,47.3163 6.4954,47.8523 C8.2764,48.3873 9.0934,49.6723 8.6204,51.2473 C8.4824,51.7073 8.3214,52.0343 8.0224,52.3583 L7.7744,52.6463 L10.3824,53.4313 C10.4524,53.4513 10.4874,53.4993 10.4624,53.5803 L10.2284,54.3623 C10.2084,54.4313 10.1594,54.4663 10.0794,54.4423 L2.3194,52.1113 C2.2394,52.0873 2.2194,52.0313 2.2394,51.9623 L2.3814,51.4913 C2.4024,51.4213 2.4464,51.3973 2.5184,51.4073 L3.1334,51.4903 Z" id="Fill-56" fill="#231F20"></path>
            </g>
        </g>
    </g>
</svg>