<?xml version="1.0" encoding="utf-8"?>
<!-- Generator: Adobe Illustrator 24.1.0, SVG Export Plug-In . SVG Version: 6.00 Build 0)  -->
<svg version="1.1" id="Layer_1" xmlns="http://www.w3.org/2000/svg" xmlns:xlink="http://www.w3.org/1999/xlink" x="0px" y="0px"
	 viewBox="0 0 1901 471.7" style="enable-background:new 0 0 1901 471.7;" xml:space="preserve">
<style type="text/css">
	.st0{fill:#231F20;}
</style>
<g>
	<g>
		<path class="st0" d="M92.6,314c9.9-5.4,22-13.2,33.5-24.1c-3.4-5.5-6.3-10.6-8.7-14.7c-13.3-23.4-22.8-49.7-26.9-73.9
			c-4.6-27.5-1.9-50.9,7.8-67.5c10.1-17.3,27.7-26.9,49.5-26.9c21.8,0,39.4,9.5,49.5,26.8c9.7,16.6,12.3,39.9,7.7,67.5
			c-4.1,24.2-13.6,50.5-26.9,73.9c-3.3,5.9-7,11.5-11.1,17c3.1,3.8,6.5,7.4,10.1,10.9c16.4,15.5,34.8,23,56.3,23
			c30.3,0,50.8-14.7,66.4-33.9c-4.1-5.5-7.8-11.1-11.2-17c-13.3-23.4-22.8-49.7-26.9-73.9c-4.6-27.5-1.9-50.9,7.8-67.5
			c10.1-17.3,27.7-26.9,49.5-26.9c21.8,0,39.4,9.5,49.5,26.8c9.7,16.6,12.3,39.9,7.7,67.5c-4.1,24.2-13.6,50.5-26.9,73.9
			c-2.4,4.3-5.3,9.3-8.6,14.8c11.5,10.9,23.6,18.7,33.5,24.1c21.4,11.5,45.5,18.4,66.6,18.9c13.8-29.4,21.4-62.3,21.4-96.9
			c0-126.6-102.7-229.3-229.4-229.3S3.5,109.3,3.5,235.9c0,34.7,7.7,67.5,21.4,96.9C46.3,332.6,70.8,325.8,92.6,314z"/>
		<path class="st0" d="M340.8,149.9c-2.7-4.7-7.9-10.9-21.7-10.9c-13.8,0-19.1,6.2-21.8,10.9c-5.8,9.9-7.1,26.3-3.9,46.1
			c3.4,20.6,11.6,43.1,23.1,63.3c0.8,1.4,1.6,2.8,2.5,4.2c0.8-1.4,1.6-2.8,2.4-4.2c11.5-20.3,19.7-42.8,23.2-63.4
			C348,176.1,346.6,159.8,340.8,149.9z"/>
		<path class="st0" d="M359,342.2c-13.7-7.4-26.2-16.2-37.2-26.2c-19.1,21.9-47,42-88.3,42c-29.6,0-56-10.7-78.3-31.8
			c-3.6-3.4-6.9-6.8-9.9-10.3c-11,10-23.6,18.8-37.3,26.2c-21,11.3-43.7,18.7-65.4,21.5C83.6,425,153.5,465.3,232.9,465.3
			c79.4,0,149.4-40.4,190.6-101.7C402,360.8,379.7,353.4,359,342.2z"/>
		<path class="st0" d="M169.6,149.9c-2.7-4.7-7.9-10.9-21.7-10.9c-13.8,0-19.1,6.2-21.8,10.9c-5.8,9.9-7.2,26.3-3.8,46.1
			c3.4,20.6,11.6,43.1,23.1,63.3c0.7,1.3,1.5,2.7,2.4,4.2c0.9-1.4,1.7-2.8,2.5-4.2c11.5-20.3,19.7-42.8,23.2-63.4
			C176.8,176.1,175.4,159.8,169.6,149.9z"/>
	</g>
	<g>
		<path class="st0" d="M658.9,242.9c-7.9,20.2-15.7,42.8-20.2,59.6c-0.5,1.6-1.6,2.4-3.4,2.4h-27.8c-1.8,0-2.9-0.8-3.4-2.4
			c-4.5-16.8-12.3-39.1-20.2-59.6l-26-61.9c-0.8-2.1,0.3-3.4,2.4-3.4h24.4c1.6,0,2.6,0.8,3.4,2.1l18.6,44.1
			c5.8,15.5,10.5,31.5,12.6,43.3c0.5,2.9,3.4,2.9,4.2,0c1.8-11.8,6.6-28.1,12.6-43.3l18.6-44.1c0.8-1.3,1.8-2.1,3.4-2.1h24.4
			c2.1,0,3.2,1.3,2.4,3.4L658.9,242.9z"/>
		<path class="st0" d="M788.3,304.3c-9.5,2.4-18.4,3.4-26.8,3.4c-39.6,0-61.9-25.7-61.9-66.4c0-40.9,22.6-66.4,60.9-66.4
			c31.5,0,50.6,15.7,50.6,41.7c0,20.2-12.3,31.8-38.6,35.7l-41.2,6.3c2.9,13.9,13.4,22.6,29.9,22.6c7.3,0,15.2-0.8,20.7-2.6
			l11.5-2.9c1.8-0.5,3.2,0.3,3.7,2.1l5.2,19.7c0.5,1.8-0.3,3.1-2.1,3.7L788.3,304.3z M768.1,229.7c9.2-1.6,14.2-5.8,14.2-12.6
			c0-10.5-8.1-16-22.3-16c-17.3,0-29.1,10.8-31.2,34.9L768.1,229.7z"/>
		<path class="st0" d="M910.6,198.3c0,1.8-1,2.9-2.9,2.9c-28.6,1.3-41.2,21.2-41.2,69.5v31.2c0,1.8-1,2.9-2.9,2.9h-23.3
			c-1.8,0-2.9-1-2.9-2.9V180.4c0-1.8,1-2.9,2.9-2.9h13.1c1.8,0,2.9,0.8,3.4,2.4l4.2,15c1.6,2.9,2.9,3.4,5.2,0.8
			c10.5-13.6,22.3-20.2,41.5-20.7c1.8,0,2.9,1.1,2.9,2.9V198.3z"/>
		<path class="st0" d="M1055.9,177.5c1.8,0,2.9,1.1,2.9,2.9v20.2c0,1.8-1.1,2.9-2.9,2.9h-79.5v63.8c0,8.9,3.9,13.9,10.2,13.9
			c2.4,0,4.7-0.3,6.8-1c1.8-0.8,3.2-0.5,3.9,1.3l8.4,17.8c0.8,1.6,0.3,2.9-1.3,3.9c-4.7,2.6-11.5,4.5-17.8,4.5
			c-24.9,0-39.4-15-39.4-40.4v-63.8h-12.9c-1.8,0-2.9-1.1-2.9-2.9v-20.2c0-1.8,1-2.9,2.9-2.9h12.9v-30.2c0-1.6,0.8-2.6,2.4-3.1
			l23.3-7.9c2.1-0.5,3.4,0.3,3.4,2.4v38.8L1055.9,177.5L1055.9,177.5z"/>
		<path class="st0" d="M1072.7,301.9c0,1.8-1.1,2.9-2.9,2.9h-23.3c-1.8,0-2.9-1-2.9-2.9v-98.4h-12.9c-1.8,0-2.9-1.1-2.9-2.9v-20.2
			c0-1.8,1.1-2.9,2.9-2.9h39.1c1.8,0,2.9,1.1,2.9,2.9V301.9z M1072.4,132.1c0,11.3-6.3,17.8-17.3,17.8c-11,0-17.6-6.6-17.6-17.8
			c0-11,6.6-17.6,17.6-17.6C1066.2,114.6,1072.4,121.1,1072.4,132.1z"/>
		<path class="st0" d="M1185.5,304.3c-7.9,2.1-16.3,3.4-24.4,3.4c-40.2,0-62.2-25.7-62.2-66.6c0-40.7,21.8-66.1,63-66.1
			c6.8,0,14.4,0.8,22.6,3.1l11.3,3.1c1.8,0.5,2.6,1.8,2.1,3.7l-6,19.7c-0.5,1.6-1.8,2.4-3.4,1.8l-8.9-2.4
			c-6.6-2.1-12.9-2.9-17.6-2.9c-23.3,0-34.1,15-34.1,39.6c0,25.5,11.3,40.4,33.6,40.4c5.5,0,12.9-1,19.4-2.9l8.7-2.6
			c1.8-0.5,3.2,0.3,3.7,1.8l6,19.7c0.5,1.8-0.3,3.1-2.1,3.7L1185.5,304.3z"/>
		<path class="st0" d="M1241.2,178.8c8.9-2.6,17.8-3.9,28.6-3.9c35.4,0,57.2,18.4,57.2,50.1v76.9c0,1.8-1.1,2.9-2.9,2.9H1311
			c-1.8,0-2.9-0.8-3.4-2.4l-2.1-8.1c-1.6-3.7-3.2-3.7-6.6-0.5c-8.1,8.9-19.9,13.9-35.9,13.9c-29.1,0-45.4-15-45.4-39.6
			s16.8-40.4,47.8-40.4h32.8v-1.6c0-16-10.2-24.7-29.7-24.7c-7.6,0-14.2,0.8-20.5,2.6l-9.4,2.9c-1.8,0.5-3.2-0.3-3.7-2.1l-5.8-19.4
			c-0.5-1.8,0.3-3.1,2.1-3.7L1241.2,178.8z M1265.3,250.5c-12.9,0-18.9,6-18.9,15c0,10.2,7.1,16.5,19.7,16.5c20.7,0,32-10.2,32-29.6
			v-1.8H1265.3z"/>
		<path class="st0" d="M1386.8,274.1c0,4.5,1.8,7.1,5.2,7.1c0.8,0,1.3,0,1.8,0c1.8-0.3,2.9-0.3,3.7,1.6l7.9,18.6
			c0.8,1.8,0.3,3.1-1.3,3.9c-3.7,1.6-8.1,2.4-12.1,2.4c-21.5,0-34.4-12.3-34.4-33.6V119.5c0-1.8,1.1-2.9,2.9-2.9h23.3
			c1.8,0,2.9,1.1,2.9,2.9L1386.8,274.1L1386.8,274.1z"/>
		<path class="st0" d="M1456.9,274.1c0,4.5,1.8,7.1,5.2,7.1c0.8,0,1.3,0,1.8,0c1.8-0.3,2.9-0.3,3.7,1.6l7.9,18.6
			c0.8,1.8,0.3,3.1-1.3,3.9c-3.7,1.6-8.1,2.4-12.1,2.4c-21.5,0-34.4-12.3-34.4-33.6V119.5c0-1.8,1.1-2.9,2.9-2.9h23.3
			c1.8,0,2.9,1.1,2.9,2.9L1456.9,274.1L1456.9,274.1z"/>
		<path class="st0" d="M1610.3,241c0,40.9-23.1,66.6-60.3,66.6c-37.5,0-60.6-25.7-60.6-66.6c0-40.4,23.1-66.1,60.6-66.1
			C1587.3,174.9,1610.3,200.6,1610.3,241z M1518.2,241c0,25.2,11.8,40.1,31.8,40.1c19.4,0,31.5-15,31.5-40.1
			c0-24.9-12.1-39.9-31.5-39.9C1530.1,201.1,1518.2,216.1,1518.2,241z"/>
		<path class="st0" d="M1751.3,241c0,40.9-23.1,66.6-60.3,66.6c-37.5,0-60.6-25.7-60.6-66.6c0-40.4,23.1-66.1,60.6-66.1
			C1728.2,174.9,1751.3,200.6,1751.3,241z M1659.2,241c0,25.2,11.8,40.1,31.8,40.1c19.4,0,31.5-15,31.5-40.1
			c0-24.9-12.1-39.9-31.5-39.9C1671,201.1,1659.2,216.1,1659.2,241z"/>
		<path class="st0" d="M1799.5,190.9c1.1,2.9,3.2,2.6,5,0.3c10.2-11.6,22.6-16.3,36.7-16.3c34.4,0,55.1,25.4,55.1,66.1
			c0,41.2-22,66.6-58.8,66.6c-9.4,0-16.3-1.6-23.9-5l-7.1-3.1v58.8c0,1.8-1.1,2.9-2.9,2.9h-23.3c-1.8,0-2.9-1-2.9-2.9V180.4
			c0-1.8,1.1-2.9,2.9-2.9h13.1c1.8,0,2.9,0.8,3.2,2.4L1799.5,190.9z M1814.2,276.7c6.3,3.1,13.6,4.5,21.5,4.5
			c20.2,0,31.8-15,31.8-40.1c0-24.9-11.6-39.9-31-39.9c-19.7,0-30.2,16.3-30.2,39.1V273L1814.2,276.7z"/>
	</g>
</g>
</svg>
